<svg width="32" height="28" viewBox="0 0 32 28" fill="none" xmlns="http://www.w3.org/2000/svg">
<path d="M1.41625 0.831022C0.882602 0.966597 0.61145 1.56948 0.871064 2.04543C0.960486 2.20986 1.05856 2.30216 1.24029 2.40024C1.35568 2.4637 1.37875 2.4637 2.73163 2.47235L4.10758 2.48101L4.21142 2.77524C4.26623 2.93678 4.48834 3.56273 4.7018 4.16561C4.91526 4.76849 5.26718 5.76079 5.48353 6.37233C5.69987 6.98386 5.99122 7.80597 6.13256 8.20404C6.27391 8.59923 6.59986 9.51653 6.85371 10.2377C7.11044 10.9588 7.42774 11.8559 7.56043 12.2281C7.69313 12.6002 7.91524 13.2232 8.05082 13.6127C8.18928 14.0021 8.44312 14.7203 8.61908 15.2136C8.79216 15.704 9.07773 16.5117 9.25369 17.0078L9.571 17.9049L9.45273 18.2194C9.38927 18.3895 9.20177 18.8972 9.03735 19.3415C8.69696 20.253 8.66523 20.3741 8.66523 20.7491C8.66523 21.078 8.72869 21.3405 8.87581 21.6462C9.18158 22.278 9.91715 22.7568 10.5777 22.7568C10.6556 22.7568 10.7191 22.7626 10.7191 22.7712C10.7191 22.7799 10.6758 22.8751 10.621 22.9818C10.2604 23.703 10.1739 24.4876 10.3729 25.2462C10.7652 26.7433 12.2277 27.7645 13.7508 27.6058C14.8758 27.4875 15.8075 26.8385 16.3036 25.8289C16.7363 24.9433 16.7363 23.9222 16.3036 23.0395C16.2344 22.901 16.1854 22.7799 16.194 22.7712C16.2171 22.7482 22.592 22.7539 22.6122 22.777C22.6238 22.7857 22.6122 22.826 22.5863 22.8635C22.494 23.0078 22.3382 23.4145 22.269 23.6943C22.0901 24.4328 22.1738 25.1683 22.517 25.8578C23.1949 27.2251 24.7699 27.9202 26.2324 27.4991C27.6978 27.0779 28.6785 25.6328 28.5228 24.1328C28.4795 23.7203 28.4045 23.4491 28.2285 23.0828C28.1535 22.9212 28.0959 22.7828 28.1074 22.7741C28.116 22.7655 28.8055 22.7568 29.6391 22.7568C30.591 22.7568 31.1968 22.7453 31.2631 22.728C31.3208 22.7107 31.4333 22.6472 31.5141 22.5837C31.9295 22.2549 31.9266 21.6001 31.5054 21.2828C31.4304 21.2251 31.3179 21.1616 31.2574 21.1443C31.1766 21.1213 28.4535 21.1126 20.9276 21.1126C14.0537 21.1126 10.67 21.1039 10.5979 21.0838C10.4768 21.0491 10.3585 20.9222 10.3296 20.8011C10.3123 20.7232 10.4768 20.2501 10.9902 18.877L11.0681 18.6751L12.0402 18.5511C12.5739 18.4847 14.446 18.2482 16.1998 18.029C21.2824 17.3857 25.0584 16.9126 26.4112 16.7424C27.1007 16.653 27.7699 16.5578 27.8968 16.5232C28.4103 16.3905 28.941 16.0732 29.3362 15.6578C29.7256 15.2482 29.9824 14.778 30.1122 14.2386L30.1756 13.9732V9.02615V4.07907L30.1122 3.96081C30.0141 3.77908 29.9218 3.681 29.7516 3.58869L29.5987 3.50216L17.9132 3.4935L6.22775 3.48773L6.19891 3.39254C6.13545 3.20216 5.49507 1.40217 5.45757 1.30986C5.39699 1.16852 5.21815 0.983906 5.05372 0.897367L4.90661 0.819483L3.2047 0.813713C2.27009 0.810829 1.46529 0.819483 1.41625 0.831022ZM28.517 9.45019C28.517 12.9434 28.5083 13.7684 28.4766 13.8867C28.3526 14.3511 27.9776 14.7463 27.5218 14.8934C27.4439 14.9194 26.0853 15.1011 24.5074 15.3001C22.9295 15.4963 20.4488 15.8078 18.9978 15.9924C13.869 16.6386 11.0739 16.9876 11.0479 16.9876C11.0162 16.9876 11.0219 17.0049 9.94022 13.9444C9.80176 13.5463 9.50753 12.7242 9.29119 12.1127C8.90177 11.0136 8.55562 10.0415 7.91235 8.21847C7.72774 7.70212 7.52005 7.11078 7.44505 6.90598C7.37005 6.69829 7.26044 6.38675 7.19986 6.21367C7.13928 6.03771 7.03255 5.73195 6.96044 5.52714L6.82775 5.1608H17.6709H28.517V9.45019ZM13.82 22.9732C14.3508 23.1116 14.7892 23.5587 14.9161 24.0866C15.1152 24.9405 14.5527 25.7828 13.6873 25.9299C12.7065 26.0943 11.795 25.1972 11.9566 24.228C12.1037 23.3309 12.9633 22.751 13.82 22.9732ZM25.7305 22.976C26.1084 23.0741 26.4776 23.3539 26.6651 23.6828C26.7747 23.876 26.8728 24.2366 26.8728 24.4414C26.8699 25.001 26.5064 25.5664 25.9959 25.8001C25.5603 26.002 25.1247 25.9991 24.6949 25.7856C24.193 25.5404 23.8872 25.0818 23.8526 24.5308C23.8238 24.0924 23.9738 23.7001 24.2911 23.3799C24.669 22.9962 25.2141 22.8434 25.7305 22.976Z" fill="#741906"/>
</svg>
